<svg width="20" height="20" viewBox="0 0 20 20" fill="none" xmlns="http://www.w3.org/2000/svg">
<path d="M9.99992 13.3334C9.80521 13.3337 9.61652 13.2659 9.46659 13.1417L4.46659 8.97503C4.11221 8.68047 4.0637 8.15441 4.35826 7.80002C4.65281 7.44564 5.17887 7.39714 5.53326 7.69169L9.99992 11.425L14.4666 7.82502C14.6388 7.68522 14.8595 7.6198 15.0801 7.64326C15.3006 7.66672 15.5027 7.77713 15.6416 7.95002C15.7959 8.12324 15.871 8.35292 15.8488 8.58382C15.8267 8.81473 15.7093 9.02595 15.5249 9.16669L10.5249 13.1917C10.3707 13.2963 10.1858 13.3462 9.99992 13.3334Z" fill="#212B36"/>
</svg>
