<svg width="13" height="12" viewBox="0 0 13 12" fill="none" xmlns="http://www.w3.org/2000/svg">
<path id="Path" d="M0.8 6.4H10.288L7.384 9.888C7.10123 10.2282 7.14779 10.7332 7.488 11.016C7.82821 11.2988 8.33323 11.2522 8.616 10.912L12.616 6.112C12.6429 6.07382 12.667 6.03371 12.688 5.992C12.688 5.952 12.728 5.928 12.744 5.888C12.7803 5.79627 12.7992 5.69863 12.8 5.6C12.7992 5.50137 12.7803 5.40373 12.744 5.312C12.744 5.272 12.704 5.248 12.688 5.208C12.667 5.16629 12.6429 5.12618 12.616 5.088L8.616 0.288002C8.46371 0.105169 8.23795 -0.000384895 8 1.52829e-06C7.81308 -0.000363682 7.63193 0.0647366 7.488 0.184002C7.32439 0.31964 7.22148 0.514802 7.20197 0.726424C7.18246 0.938047 7.24795 1.14874 7.384 1.312L10.288 4.8H0.8C0.358172 4.8 0 5.15817 0 5.6C0 6.04183 0.358172 6.4 0.8 6.4Z" fill="white"/>
</svg>
